<svg width="166" height="114" viewBox="0 0 166 114" fill="none" xmlns="http://www.w3.org/2000/svg">
<g clip-path="url(#clip0_2_55)">
<path d="M15.5973 31.92C15.5973 27.5128 12.1057 23.94 7.79866 23.94C3.49158 23.94 0 27.5128 0 31.92V57C0 61.4072 3.49158 64.98 7.79866 64.98C12.1057 64.98 15.5973 61.4072 15.5973 57V31.92Z" fill="#B91F33"/>
<path d="M166 31.92C166 27.5128 162.508 23.94 158.201 23.94C153.894 23.94 150.403 27.5128 150.403 31.92V57C150.403 61.4072 153.894 64.98 158.201 64.98C162.508 64.98 166 61.4072 166 57V31.92Z" fill="#B91F33"/>
<path d="M90.2416 31.92C90.2416 27.5128 86.75 23.94 82.4429 23.94C78.1359 23.94 74.6443 27.5128 74.6443 31.92V57C74.6443 61.4072 78.1359 64.98 82.4429 64.98C86.75 64.98 90.2416 61.4072 90.2416 57V31.92Z" fill="#B91F33"/>
<path d="M40.1073 21.66C40.1073 17.2528 36.6157 13.68 32.3087 13.68C28.0016 13.68 24.51 17.2528 24.51 21.66V67.26C24.51 71.6672 28.0016 75.24 32.3087 75.24C36.6157 75.24 40.1073 71.6672 40.1073 67.26V21.66Z" fill="#B91F33"/>
<path d="M140.376 21.66C140.376 17.2528 136.884 13.68 132.577 13.68C128.27 13.68 124.779 17.2528 124.779 21.66V67.26C124.779 71.6672 128.27 75.24 132.577 75.24C136.884 75.24 140.376 71.6672 140.376 67.26V21.66Z" fill="#B91F33"/>
<path d="M65.7316 7.98C65.7316 3.57277 62.24 0 57.9329 0C53.6259 0 50.1343 3.57277 50.1343 7.98V80.94C50.1343 85.3472 53.6259 88.92 57.9329 88.92C62.24 88.92 65.7316 85.3472 65.7316 80.94V7.98Z" fill="#B91F33"/>
<path d="M115.866 7.98C115.866 3.57277 112.374 0 108.067 0C103.76 0 100.269 3.57277 100.269 7.98V80.94C100.269 85.3472 103.76 88.92 108.067 88.92C112.374 88.92 115.866 85.3472 115.866 80.94V7.98Z" fill="#B91F33"/>
<path d="M26.9559 93.48H32.2258V114H26.9559V105.881H23.0953V114H17.8254V93.48H23.0953V101.886H26.9559V93.48Z" fill="white"/>
<path d="M44.6898 114L44.077 110.932H39.3586L38.7152 114H33.4453L38.5007 93.48H45.0268L50.0822 114H44.6898ZM40.1858 106.968H43.2498L41.7484 99.5848L40.1858 106.968Z" fill="white"/>
<path d="M56.6688 106.713V114H51.3069V93.48H60.4067C63.4093 93.48 64.9106 94.8011 64.9106 97.4433V102.749C64.9106 104.773 64.0323 106.02 62.2757 106.489L65.891 114H60.131L57.0058 106.713H56.6688ZM58.7828 97.4753H56.6688V102.909H58.7828C59.2935 102.909 59.5488 102.675 59.5488 102.206V98.1785C59.5488 97.7097 59.2935 97.4753 58.7828 97.4753Z" fill="white"/>
<path d="M67.3518 93.48H76.3902C79.3929 93.48 80.8942 94.8011 80.8942 97.4433V110.037C80.8942 112.679 79.3929 114 76.3902 114H67.3518V93.48ZM75.5324 109.621V97.8588C75.5324 97.3901 75.277 97.1557 74.7664 97.1557H72.7136V110.324H74.7664C75.277 110.324 75.5324 110.09 75.5324 109.621Z" fill="white"/>
<path d="M102.571 101.151H97.2093V97.8588C97.2093 97.3901 96.9539 97.1557 96.4433 97.1557H95.3709C94.8603 97.1557 94.605 97.3901 94.605 97.8588V109.621C94.605 110.09 94.8603 110.324 95.3709 110.324H96.4433C96.9539 110.324 97.2093 110.09 97.2093 109.621V106.457H102.571V110.037C102.571 112.679 101.07 114 98.0672 114H93.7471C90.7445 114 89.2432 112.679 89.2432 110.037V97.4433C89.2432 94.8011 90.7445 93.48 93.7471 93.48H98.0672C101.07 93.48 102.571 94.8011 102.571 97.4433V101.151Z" fill="white"/>
<path d="M108.978 93.48H113.513C116.515 93.48 118.017 94.8011 118.017 97.4433V110.037C118.017 112.679 116.515 114 113.513 114H108.978C105.975 114 104.474 112.679 104.474 110.037V97.4433C104.474 94.8011 105.975 93.48 108.978 93.48ZM112.655 109.301V98.1785C112.655 97.7097 112.4 97.4753 111.888 97.4753H110.602C110.091 97.4753 109.836 97.7097 109.836 98.1785V109.301C109.836 109.77 110.091 110.005 110.602 110.005H111.888C112.4 110.005 112.655 109.77 112.655 109.301Z" fill="white"/>
<path d="M125.727 106.713V114H120.365V93.48H129.464C132.467 93.48 133.968 94.8011 133.968 97.4433V102.749C133.968 104.773 133.09 106.02 131.333 106.489L134.948 114H129.188L126.063 106.713H125.727ZM127.84 97.4753H125.727V102.909H127.84C128.351 102.909 128.607 102.675 128.607 102.206V98.1785C128.607 97.7097 128.351 97.4753 127.84 97.4753Z" fill="white"/>
<path d="M141.464 110.005H148.175V114H136.102V93.48H147.898V97.4753H141.464V101.662H147.01V105.658H141.464V110.005Z" fill="white"/>
</g>
<defs>
<clipPath id="clip0_2_55">
<rect width="166" height="114" fill="white"/>
</clipPath>
</defs>
</svg>
